TITLE ""
FILE "2Q_t_0553-0570.mp3" MP3
  TRACK 01 AUDIO
    TITLE "2Q_t_0553-0570_01"
    INDEX 01 00:00:00
  TRACK 02 AUDIO
    TITLE "2Q_t_0553-0570_02"
    INDEX 01 00:01:06
  TRACK 03 AUDIO
    TITLE "2Q_t_0553-0570_03"
    INDEX 01 00:01:53
  TRACK 04 AUDIO
    TITLE "2Q_t_0553-0570_04"
    INDEX 01 00:02:48
  TRACK 05 AUDIO
    TITLE "2Q_t_0553-0570_05"
    INDEX 01 00:03:18
  TRACK 06 AUDIO
    TITLE "2Q_t_0553-0570_06"
    INDEX 01 00:04:47
  TRACK 07 AUDIO
    TITLE "2Q_t_0553-0570_07"
    INDEX 01 00:05:29
  TRACK 08 AUDIO
    TITLE "2Q_t_0553-0570_08"
    INDEX 01 00:06:40
  TRACK 09 AUDIO
    TITLE "2Q_t_0553-0570_09"
    INDEX 01 00:07:10
  TRACK 10 AUDIO
    TITLE "2Q_t_0553-0570_10"
    INDEX 01 00:08:24
  TRACK 11 AUDIO
    TITLE "2Q_t_0553-0570_11"
    INDEX 01 00:09:03
  TRACK 12 AUDIO
    TITLE "2Q_t_0553-0570_12"
    INDEX 01 00:11:06
  TRACK 13 AUDIO
    TITLE "2Q_t_0553-0570_13"
    INDEX 01 00:11:51
  TRACK 14 AUDIO
    TITLE "2Q_t_0553-0570_14"
    INDEX 01 00:12:61
  TRACK 15 AUDIO
    TITLE "2Q_t_0553-0570_15"
    INDEX 01 00:13:29
  TRACK 16 AUDIO
    TITLE "2Q_t_0553-0570_16"
    INDEX 01 00:14:46
  TRACK 17 AUDIO
    TITLE "2Q_t_0553-0570_17"
    INDEX 01 00:15:16
  TRACK 18 AUDIO
    TITLE "2Q_t_0553-0570_18"
    INDEX 01 00:16:50
  TRACK 19 AUDIO
    TITLE "2Q_t_0553-0570_19"
    INDEX 01 00:17:21
  TRACK 20 AUDIO
    TITLE "2Q_t_0553-0570_20"
    INDEX 01 00:19:64
  TRACK 21 AUDIO
    TITLE "2Q_t_0553-0570_21"
    INDEX 01 00:20:37
  TRACK 22 AUDIO
    TITLE "2Q_t_0553-0570_22"
    INDEX 01 00:21:58
  TRACK 23 AUDIO
    TITLE "2Q_t_0553-0570_23"
    INDEX 01 00:22:30
  TRACK 24 AUDIO
    TITLE "2Q_t_0553-0570_24"
    INDEX 01 00:23:33
  TRACK 25 AUDIO
    TITLE "2Q_t_0553-0570_25"
    INDEX 01 00:24:03
  TRACK 26 AUDIO
    TITLE "2Q_t_0553-0570_26"
    INDEX 01 00:25:24
  TRACK 27 AUDIO
    TITLE "2Q_t_0553-0570_27"
    INDEX 01 00:25:73
  TRACK 28 AUDIO
    TITLE "2Q_t_0553-0570_28"
    INDEX 01 00:27:17
  TRACK 29 AUDIO
    TITLE "2Q_t_0553-0570_29"
    INDEX 01 00:27:62
  TRACK 30 AUDIO
    TITLE "2Q_t_0553-0570_30"
    INDEX 01 00:29:20
  TRACK 31 AUDIO
    TITLE "2Q_t_0553-0570_31"
    INDEX 01 00:29:67
  TRACK 32 AUDIO
    TITLE "2Q_t_0553-0570_32"
    INDEX 01 00:31:13
  TRACK 33 AUDIO
    TITLE "2Q_t_0553-0570_33"
    INDEX 01 00:31:56
  TRACK 34 AUDIO
    TITLE "2Q_t_0553-0570_34"
    INDEX 01 00:33:04
  TRACK 35 AUDIO
    TITLE "2Q_t_0553-0570_35"
    INDEX 01 00:33:53
  TRACK 36 AUDIO
    TITLE "2Q_t_0553-0570_36"
    INDEX 01 00:35:67
  TRACK 37 AUDIO
    TITLE "2Q_t_0553-0570_37"
    INDEX 01 00:36:36
  TRACK 38 AUDIO
    TITLE "2Q_t_0553-0570_38"
    INDEX 01 00:37:41
  TRACK 39 AUDIO
    TITLE "2Q_t_0553-0570_39"
    INDEX 01 00:38:13
  TRACK 40 AUDIO
    TITLE "2Q_t_0553-0570_40"
    INDEX 01 00:40:22
  TRACK 41 AUDIO
    TITLE "2Q_t_0553-0570_41"
    INDEX 01 00:40:69
  TRACK 42 AUDIO
    TITLE "2Q_t_0553-0570_42"
    INDEX 01 00:41:72
  TRACK 43 AUDIO
    TITLE "2Q_t_0553-0570_43"
    INDEX 01 00:42:46
  TRACK 44 AUDIO
    TITLE "2Q_t_0553-0570_44"
    INDEX 01 00:45:56
  TRACK 45 AUDIO
    TITLE "2Q_t_0553-0570_45"
    INDEX 01 00:46:24
  TRACK 46 AUDIO
    TITLE "2Q_t_0553-0570_46"
    INDEX 01 00:47:55
  TRACK 47 AUDIO
    TITLE "2Q_t_0553-0570_47"
    INDEX 01 00:48:27
  TRACK 48 AUDIO
    TITLE "2Q_t_0553-0570_48"
    INDEX 01 00:49:44
  TRACK 49 AUDIO
    TITLE "2Q_t_0553-0570_49"
    INDEX 01 00:50:14
  TRACK 50 AUDIO
    TITLE "2Q_t_0553-0570_50"
    INDEX 01 00:51:35
  TRACK 51 AUDIO
    TITLE "2Q_t_0553-0570_51"
    INDEX 01 00:52:05
  TRACK 52 AUDIO
    TITLE "2Q_t_0553-0570_52"
    INDEX 01 00:54:35
  TRACK 53 AUDIO
    TITLE "2Q_t_0553-0570_53"
    INDEX 01 00:55:05
  TRACK 54 AUDIO
    TITLE "2Q_t_0553-0570_54"
    INDEX 01 00:56:32
  TRACK 55 AUDIO
    TITLE "2Q_t_0553-0570_55"
    INDEX 01 00:57:08
  TRACK 56 AUDIO
    TITLE "2Q_t_0553-0570_56"
    INDEX 01 00:58:37
  TRACK 57 AUDIO
    TITLE "2Q_t_0553-0570_57"
    INDEX 01 00:59:07
  TRACK 58 AUDIO
    TITLE "2Q_t_0553-0570_58"
    INDEX 01 01:00:18
  TRACK 59 AUDIO
    TITLE "2Q_t_0553-0570_59"
    INDEX 01 01:00:71
  TRACK 60 AUDIO
    TITLE "2Q_t_0553-0570_60"
    INDEX 01 01:03:07
  TRACK 61 AUDIO
    TITLE "2Q_t_0553-0570_61"
    INDEX 01 01:03:52
  TRACK 62 AUDIO
    TITLE "2Q_t_0553-0570_62"
    INDEX 01 01:04:65
  TRACK 63 AUDIO
    TITLE "2Q_t_0553-0570_63"
    INDEX 01 01:05:37
  TRACK 64 AUDIO
    TITLE "2Q_t_0553-0570_64"
    INDEX 01 01:06:48
  TRACK 65 AUDIO
    TITLE "2Q_t_0553-0570_65"
    INDEX 01 01:07:18
  TRACK 66 AUDIO
    TITLE "2Q_t_0553-0570_66"
    INDEX 01 01:08:18
  TRACK 67 AUDIO
    TITLE "2Q_t_0553-0570_67"
    INDEX 01 01:08:69
  TRACK 68 AUDIO
    TITLE "2Q_t_0553-0570_68"
    INDEX 01 01:11:12
  TRACK 69 AUDIO
    TITLE "2Q_t_0553-0570_69"
    INDEX 01 01:11:59
  TRACK 70 AUDIO
    TITLE "2Q_t_0553-0570_70"
    INDEX 01 01:12:55
  TRACK 71 AUDIO
    TITLE "2Q_t_0553-0570_71"
    INDEX 01 01:13:29
  TRACK 72 AUDIO
    TITLE "2Q_t_0553-0570_72"
    INDEX 01 01:17:46
